<svg xmlns="http://www.w3.org/2000/svg" xmlns:xlink="http://www.w3.org/1999/xlink" width="500" zoomAndPan="magnify" viewBox="0 0 375 374.999991" height="500" preserveAspectRatio="xMidYMid meet" version="1.0"><defs><g/><clipPath id="ec94bbdcef"><path d="M 120.09375 83.414062 L 254.789062 83.414062 L 254.789062 222.914062 L 120.09375 222.914062 Z M 120.09375 83.414062 " clip-rule="nonzero"/></clipPath><clipPath id="a5cfc6d244"><path d="M 145 152 L 232.53125 152 L 232.53125 222 L 145 222 Z M 145 152 " clip-rule="nonzero"/></clipPath><clipPath id="bd92a74651"><path d="M 142.53125 149 L 231 149 L 231 220 L 142.53125 220 Z M 142.53125 149 " clip-rule="nonzero"/></clipPath><clipPath id="f7e60cf16e"><path d="M 163 111.117188 L 211 111.117188 L 211 139 L 163 139 Z M 163 111.117188 " clip-rule="nonzero"/></clipPath></defs><rect x="-37.5" width="450" fill="#ffffff" y="-37.499999" height="449.999989" fill-opacity="1"/><rect x="-37.5" width="450" fill="#ffffff" y="-37.499999" height="449.999989" fill-opacity="1"/><rect x="-37.5" width="450" fill="#ffffff" y="-37.499999" height="449.999989" fill-opacity="1"/><g clip-path="url(#ec94bbdcef)"><path fill="#fae5d2" d="M 254.789062 331.621094 L 250.820312 331.621094 L 250.820312 150.746094 C 250.820312 133.824219 244.230469 117.917969 232.269531 105.949219 C 220.292969 93.980469 204.367188 87.382812 187.429688 87.382812 C 170.507812 87.382812 154.589844 93.972656 142.628906 105.933594 C 130.660156 117.886719 124.0625 133.800781 124.0625 150.746094 L 124.0625 331.621094 L 120.09375 331.621094 L 120.09375 150.746094 C 120.09375 132.738281 127.101562 115.832031 139.832031 103.128906 C 152.535156 90.414062 169.445312 83.414062 187.429688 83.414062 C 205.429688 83.414062 222.355469 90.421875 235.074219 103.144531 C 247.789062 115.855469 254.789062 132.761719 254.789062 150.746094 L 254.789062 331.621094 " fill-opacity="1" fill-rule="nonzero"/></g><path fill="#f9ce6e" d="M 176.3125 139.738281 L 202.035156 139.738281 L 202.035156 153.527344 L 176.3125 153.527344 Z M 176.3125 139.738281 " fill-opacity="1" fill-rule="nonzero"/><path fill="#efefef" d="M 206.085938 139.738281 L 212.019531 124.773438 L 206.085938 117.15625 C 194.976562 114.410156 183.371094 114.410156 172.265625 117.15625 L 166.328125 124.773438 L 172.265625 139.738281 Z M 206.085938 139.738281 " fill-opacity="1" fill-rule="nonzero"/><g clip-path="url(#a5cfc6d244)"><path fill="#ffffff" d="M 232.484375 210.71875 C 232.484375 215.449219 228.660156 219.324219 223.894531 219.324219 C 200.824219 222.117188 177.527344 222.117188 154.453125 219.324219 C 149.730469 219.324219 145.863281 215.492188 145.863281 210.71875 L 145.863281 163.304688 C 145.863281 158.574219 149.6875 154.699219 154.453125 154.699219 C 177.527344 151.90625 200.824219 151.90625 223.894531 154.699219 C 228.617188 154.699219 232.484375 158.53125 232.484375 163.304688 Z M 232.484375 210.71875 " fill-opacity="1" fill-rule="nonzero"/></g><g clip-path="url(#bd92a74651)"><path stroke-linecap="round" transform="matrix(0.449737, 0, 0, 0.45067, 142.581557, 111.794971)" fill="none" stroke-linejoin="round" d="M 194.602832 214.199257 C 194.602832 224.695784 186.09959 233.302763 175.503109 233.302763 C 124.19703 239.500135 72.395869 239.500135 21.098476 233.302763 C 10.597537 233.302763 1.998752 224.799796 1.998752 214.199257 L 1.998752 108.999957 C 1.998752 98.503429 10.501995 89.89645 21.098476 89.89645 C 72.395869 83.699079 124.19703 83.699079 175.503109 89.89645 C 186.004048 89.89645 194.602832 98.399418 194.602832 108.999957 Z M 194.602832 214.199257 " stroke="#000000" stroke-width="3.973" stroke-opacity="1" stroke-miterlimit="10"/></g><path stroke-linecap="round" transform="matrix(0.449737, 0, 0, 0.45067, 142.581557, 111.794971)" fill="none" stroke-linejoin="round" d="M 181.296431 143.601226 L 181.296431 166.899876 " stroke="#000000" stroke-width="3.973" stroke-opacity="1" stroke-miterlimit="10"/><path fill="#fae5d2" d="M 189.175781 214.230469 C 177.886719 214.230469 166.507812 213.554688 155.308594 212.203125 L 154.90625 212.160156 L 154.453125 212.160156 C 153.644531 212.160156 153.015625 211.527344 153.015625 210.71875 L 153.015625 163.304688 C 153.015625 162.496094 153.644531 161.863281 154.453125 161.863281 L 154.90625 161.863281 L 155.308594 161.820312 C 166.507812 160.46875 177.886719 159.792969 189.175781 159.792969 C 200.460938 159.792969 211.839844 160.46875 223.039062 161.820312 L 223.445312 161.863281 L 223.894531 161.863281 C 224.703125 161.863281 225.332031 162.496094 225.332031 163.304688 L 225.332031 210.71875 C 225.332031 211.527344 224.703125 212.160156 223.894531 212.160156 L 223.445312 212.160156 L 223.039062 212.203125 C 211.839844 213.554688 200.460938 214.230469 189.175781 214.230469 Z M 189.175781 214.230469 " fill-opacity="1" fill-rule="nonzero"/><path fill="#ffffff" d="M 189.175781 159.835938 C 177.886719 159.792969 166.507812 160.46875 155.308594 161.820312 L 154.90625 161.863281 L 154.453125 161.863281 C 153.644531 161.863281 153.015625 162.496094 153.015625 163.304688 L 153.015625 193.726562 C 173.253906 192.285156 189.175781 177.683594 189.175781 159.835938 Z M 189.175781 159.835938 " fill-opacity="0.698" fill-rule="nonzero"/><path stroke-linecap="round" transform="matrix(0.449737, 0, 0, 0.45067, 142.581557, 111.794971)" fill="none" stroke-linejoin="round" d="M 146.597297 211.000893 C 157.897315 212.101685 169.101792 213.497177 180.297582 215.300049 " stroke="#000000" stroke-width="3.973" stroke-opacity="1" stroke-miterlimit="10"/><path stroke-linecap="round" transform="matrix(0.449737, 0, 0, 0.45067, 142.581557, 111.794971)" fill="none" stroke-linejoin="round" d="M 16.304002 215.300049 C 25.901635 213.800545 35.499268 212.500397 45.096901 211.503617 " stroke="#000000" stroke-width="3.973" stroke-opacity="1" stroke-miterlimit="10"/><path stroke-linecap="round" transform="matrix(0.449737, 0, 0, 0.45067, 142.581557, 111.794971)" fill="none" stroke-linejoin="round" d="M 126.898264 59.403648 L 126.898264 85.996007 L 69.703321 85.996007 L 69.703321 59.403648 " stroke="#000000" stroke-width="3.973" stroke-opacity="1" stroke-miterlimit="10"/><path fill="#f9ce6e" d="M 195.425781 139.738281 L 195.425781 126.171875 C 191.46875 124.277344 186.878906 124.277344 182.921875 126.171875 L 182.921875 139.738281 Z M 195.425781 139.738281 " fill-opacity="1" fill-rule="nonzero"/><g clip-path="url(#f7e60cf16e)"><path stroke-linecap="round" transform="matrix(0.449737, 0, 0, 0.45067, 142.581557, 111.794971)" fill="none" stroke-linejoin="round" d="M 135.896588 56.699341 L 149.098761 23.502231 L 135.896588 6.600308 C 111.203311 0.498281 85.398273 0.498281 60.696311 6.600308 L 47.502823 23.502231 L 60.696311 56.699341 Z M 135.896588 56.699341 " stroke="#000000" stroke-width="3.973" stroke-opacity="1" stroke-miterlimit="10"/></g><path fill="#f4d5bd" d="M 157.960938 170.472656 L 157.960938 180.972656 C 157.960938 198.234375 171.949219 212.25 189.175781 212.25 C 206.398438 212.25 220.386719 198.234375 220.386719 180.972656 L 220.386719 164.027344 L 157.960938 164.027344 Z M 157.960938 170.472656 " fill-opacity="1" fill-rule="nonzero"/><path fill="#ffffff" d="M 188.859375 163.984375 L 157.960938 163.984375 L 157.960938 180.972656 C 157.960938 185.117188 158.773438 189.039062 160.210938 192.644531 C 175.414062 188.996094 186.925781 177.773438 188.859375 163.984375 Z M 188.859375 163.984375 " fill-opacity="0.698" fill-rule="nonzero"/><path stroke-linecap="round" transform="matrix(0.449737, 0, 0, 0.45067, 142.581557, 111.794971)" fill="none" stroke-linejoin="round" d="M 130.598347 14.799908 L 138.597822 25.001735 L 135.201736 33.40069 " stroke="#000000" stroke-width="3.973" stroke-opacity="1" stroke-miterlimit="10"/><path stroke-linecap="round" transform="matrix(0.449737, 0, 0, 0.45067, 142.581557, 111.794971)" fill="none" stroke-linejoin="round" d="M 112.20216 56.699341 L 112.20216 26.596583 C 103.403606 22.401439 93.197979 22.401439 84.399425 26.596583 L 84.399425 56.699341 " stroke="#000000" stroke-width="3.973" stroke-opacity="1" stroke-miterlimit="10"/><path stroke-linecap="round" transform="matrix(0.449737, 0, 0, 0.45067, 142.581557, 111.794971)" fill="none" stroke-linejoin="round" d="M 98.29645 31.199107 C 101.701221 31.199107 104.402455 33.998758 104.402455 37.301134 C 104.402455 40.60351 101.596993 43.403162 98.29645 43.403162 C 95.899213 43.403162 93.797288 41.999002 92.798439 39.996774 C 92.3989 39.19935 92.103588 38.20257 92.103588 37.197122 " stroke="#000000" stroke-width="3.973" stroke-opacity="1" stroke-miterlimit="10"/><path stroke-linecap="round" transform="matrix(0.449737, 0, 0, 0.45067, 142.581557, 111.794971)" fill="none" stroke-linejoin="round" d="M 117.100861 64.396216 L 117.100861 77.796407 " stroke="#000000" stroke-width="3.973" stroke-opacity="1" stroke-miterlimit="10"/><path stroke-linecap="round" transform="matrix(0.449737, 0, 0, 0.45067, 142.581557, 111.794971)" fill="none" stroke-linejoin="round" d="M 71.79656 110.499461 L 167.703403 110.499461 L 167.703403 148.099738 C 167.703403 186.402095 136.600125 217.501633 98.29645 217.501633 C 60.00146 217.501633 28.898181 186.402095 28.898181 148.099738 L 28.898181 124.896432 " stroke="#000000" stroke-width="3.973" stroke-opacity="1" stroke-miterlimit="10"/><path stroke-linecap="round" transform="matrix(0.449737, 0, 0, 0.45067, 142.581557, 111.794971)" fill="none" stroke-linejoin="round" d="M 57.100456 23.502231 L 74.897334 23.502231 " stroke="#000000" stroke-width="3.973" stroke-opacity="1" stroke-miterlimit="10"/><g fill="#a48f7a" fill-opacity="1"><g transform="translate(104.665669, 262.602345)"><g><path d="M 24.046875 -4.828125 C 24.046875 -4.828125 24.054688 -4.832031 24.078125 -4.84375 C 24.085938 -4.863281 24.101562 -4.875 24.125 -4.875 C 24.519531 -5.226562 24.84375 -5.34375 25.09375 -5.21875 C 25.28125 -5.125 25.398438 -4.953125 25.453125 -4.703125 C 25.546875 -4.046875 25.113281 -3.363281 24.15625 -2.65625 C 22.75 -1.632812 21.304688 -0.664062 19.828125 0.25 C 19.609375 0.382812 19.441406 0.46875 19.328125 0.5 C 19.160156 0.53125 18.914062 0.503906 18.59375 0.421875 C 17.632812 0.171875 16.117188 -0.273438 14.046875 -0.921875 C 13.148438 -1.140625 12.441406 -1.300781 11.921875 -1.40625 C 11.035156 -1.570312 10.445312 -1.742188 10.15625 -1.921875 C 9.882812 -2.085938 9.347656 -1.921875 8.546875 -1.421875 C 7.878906 -1.023438 7.226562 -0.71875 6.59375 -0.5 C 5.96875 -0.28125 5.335938 -0.171875 4.703125 -0.171875 C 4.066406 -0.171875 3.460938 -0.34375 2.890625 -0.6875 C 2.316406 -1.039062 1.820312 -1.570312 1.40625 -2.28125 C 1.320312 -2.40625 1.253906 -2.539062 1.203125 -2.6875 C 1.148438 -2.832031 1.113281 -2.988281 1.09375 -3.15625 C 1.082031 -3.320312 1.078125 -3.457031 1.078125 -3.5625 C 1.078125 -3.664062 1.09375 -3.820312 1.125 -4.03125 C 1.15625 -4.238281 1.175781 -4.378906 1.1875 -4.453125 C 1.207031 -4.535156 1.25 -4.695312 1.3125 -4.9375 C 1.375 -5.175781 1.40625 -5.320312 1.40625 -5.375 C 1.53125 -5.9375 1.753906 -6.460938 2.078125 -6.953125 C 2.410156 -7.453125 2.789062 -7.773438 3.21875 -7.921875 C 3.769531 -8.117188 4.507812 -8.171875 5.4375 -8.078125 C 6.363281 -7.992188 6.992188 -7.816406 7.328125 -7.546875 C 8.296875 -6.816406 9.050781 -6.546875 9.59375 -6.734375 C 10.132812 -6.929688 10.71875 -7.671875 11.34375 -8.953125 C 11.675781 -9.648438 12.128906 -10.59375 12.703125 -11.78125 C 13.835938 -14.113281 13.160156 -15.171875 10.671875 -14.953125 C 9.804688 -14.867188 9.066406 -14.992188 8.453125 -15.328125 C 7.347656 -15.941406 6.4375 -16.359375 5.71875 -16.578125 C 5.257812 -16.710938 4.925781 -16.925781 4.71875 -17.21875 C 4.507812 -17.519531 4.503906 -17.796875 4.703125 -18.046875 C 4.867188 -18.265625 5.160156 -18.289062 5.578125 -18.125 C 6.421875 -17.757812 7.128906 -17.484375 7.703125 -17.296875 C 8.265625 -17.117188 8.804688 -17.003906 9.328125 -16.953125 C 9.859375 -16.898438 10.515625 -16.882812 11.296875 -16.90625 C 12.910156 -16.90625 13.921875 -17.035156 14.328125 -17.296875 C 14.492188 -17.453125 14.703125 -17.734375 14.953125 -18.140625 C 15.203125 -18.546875 15.410156 -19.003906 15.578125 -19.515625 C 15.753906 -20.035156 15.882812 -20.515625 15.96875 -20.953125 C 16.019531 -21.398438 16.332031 -22.019531 16.90625 -22.8125 C 17.488281 -23.601562 18.070312 -24.191406 18.65625 -24.578125 C 19.363281 -25.054688 20.320312 -24.945312 21.53125 -24.25 C 21.945312 -24 22.195312 -23.769531 22.28125 -23.5625 C 22.363281 -23.351562 22.394531 -22.882812 22.375 -22.15625 C 22.34375 -21.21875 22.207031 -20.40625 21.96875 -19.71875 C 21.738281 -19.039062 21.375 -18.445312 20.875 -17.9375 C 20.375 -17.425781 19.71875 -16.972656 18.90625 -16.578125 C 18.113281 -16.191406 17.539062 -15.726562 17.1875 -15.1875 C 16.832031 -14.644531 16.3125 -13.472656 15.625 -11.671875 C 14.457031 -8.660156 13.515625 -6.5625 12.796875 -5.375 C 12.378906 -4.6875 12.28125 -4.125 12.5 -3.6875 C 12.726562 -3.257812 13.253906 -3.015625 14.078125 -2.953125 C 15.160156 -2.847656 16.351562 -2.585938 17.65625 -2.171875 C 18.46875 -1.890625 19.347656 -1.929688 20.296875 -2.296875 C 20.648438 -2.410156 20.976562 -2.550781 21.28125 -2.71875 C 21.59375 -2.882812 21.941406 -3.117188 22.328125 -3.421875 C 22.710938 -3.722656 22.976562 -3.929688 23.125 -4.046875 C 23.269531 -4.160156 23.578125 -4.421875 24.046875 -4.828125 Z M 18.34375 -21.25 C 17.664062 -20.113281 17.648438 -19.53125 18.296875 -19.5 C 18.535156 -19.53125 18.820312 -19.695312 19.15625 -20 C 19.488281 -20.3125 19.757812 -20.660156 19.96875 -21.046875 C 20.175781 -21.429688 20.226562 -21.707031 20.125 -21.875 C 19.738281 -22.625 19.144531 -22.414062 18.34375 -21.25 Z M 6.625 -3.59375 C 7.320312 -4 7.660156 -4.332031 7.640625 -4.59375 C 7.628906 -4.863281 7.25 -5.132812 6.5 -5.40625 C 5.832031 -5.6875 5.425781 -5.816406 5.28125 -5.796875 C 5.144531 -5.785156 4.875 -5.617188 4.46875 -5.296875 C 4.101562 -4.984375 3.929688 -4.691406 3.953125 -4.421875 C 3.984375 -4.160156 4.222656 -3.851562 4.671875 -3.5 C 5.035156 -3.21875 5.296875 -3.082031 5.453125 -3.09375 C 5.617188 -3.113281 6.007812 -3.28125 6.625 -3.59375 Z M 6.625 -3.59375 "/></g></g></g><g fill="#a48f7a" fill-opacity="1"><g transform="translate(128.549384, 262.602345)"><g><path d="M 14.625 -4.796875 C 14.875 -4.660156 15 -4.367188 15 -3.921875 C 15.019531 -3.410156 14.726562 -2.925781 14.125 -2.46875 C 13.90625 -2.320312 13.65625 -2.175781 13.375 -2.03125 C 13.320312 -2.007812 13.265625 -1.972656 13.203125 -1.921875 C 12.960938 -1.785156 12.757812 -1.710938 12.59375 -1.703125 C 12.09375 -1.671875 11.613281 -1.867188 11.15625 -2.296875 C 11.03125 -2.398438 10.90625 -2.578125 10.78125 -2.828125 L 10.703125 -2.953125 C 10.546875 -3.203125 10.398438 -3.359375 10.265625 -3.421875 C 10.140625 -3.492188 9.976562 -3.476562 9.78125 -3.375 C 9.53125 -3.238281 9.242188 -2.832031 8.921875 -2.15625 C 8.773438 -1.800781 8.648438 -1.554688 8.546875 -1.421875 C 8.234375 -0.953125 7.957031 -0.6875 7.71875 -0.625 C 7.425781 -0.476562 7.019531 -0.242188 6.5 0.078125 C 5.863281 0.460938 5.265625 0.671875 4.703125 0.703125 C 4.046875 0.753906 3.5625 0.820312 3.25 0.90625 C 3.164062 0.914062 3.082031 0.921875 3 0.921875 C 2.8125 0.921875 2.65625 0.890625 2.53125 0.828125 C 2.320312 0.742188 2.03125 0.519531 1.65625 0.15625 C 1.238281 -0.226562 0.953125 -0.566406 0.796875 -0.859375 C 0.648438 -1.148438 0.5 -1.664062 0.34375 -2.40625 C 0.09375 -3.601562 0.0351562 -4.5625 0.171875 -5.28125 C 0.304688 -6.007812 0.675781 -6.859375 1.28125 -7.828125 C 2.039062 -9.054688 2.765625 -9.945312 3.453125 -10.5 C 4.128906 -11.050781 4.96875 -11.441406 5.96875 -11.671875 C 6.457031 -11.773438 6.882812 -11.953125 7.25 -12.203125 C 7.832031 -12.585938 8.347656 -12.726562 8.796875 -12.625 C 9.234375 -12.539062 9.734375 -12.195312 10.296875 -11.59375 C 10.597656 -11.257812 10.816406 -10.992188 10.953125 -10.796875 C 11.085938 -10.597656 11.175781 -10.40625 11.21875 -10.21875 C 11.269531 -10.039062 11.296875 -9.773438 11.296875 -9.421875 C 11.296875 -7.941406 11.347656 -6.789062 11.453125 -5.96875 C 11.503906 -5.488281 11.613281 -5.117188 11.78125 -4.859375 C 11.957031 -4.597656 12.265625 -4.285156 12.703125 -3.921875 L 12.78125 -3.96875 C 13.070312 -4.175781 13.285156 -4.335938 13.421875 -4.453125 C 13.921875 -4.835938 14.320312 -4.953125 14.625 -4.796875 Z M 8.84375 -9.09375 C 8.84375 -9.75 8.78125 -10.109375 8.65625 -10.171875 C 8.613281 -10.140625 8.578125 -10.097656 8.546875 -10.046875 C 8.460938 -9.898438 8.472656 -9.5625 8.578125 -9.03125 C 8.640625 -8.644531 8.707031 -8.398438 8.78125 -8.296875 C 8.820312 -8.429688 8.84375 -8.695312 8.84375 -9.09375 Z M 8.125 -5.25 C 8.1875 -5.632812 8.175781 -5.910156 8.09375 -6.078125 C 8.03125 -6.242188 7.820312 -6.5 7.46875 -6.84375 C 6.925781 -7.382812 6.65625 -7.828125 6.65625 -8.171875 C 6.65625 -8.410156 6.578125 -8.6875 6.421875 -9 C 6.273438 -9.3125 6.125 -9.519531 5.96875 -9.625 C 5.851562 -9.707031 5.753906 -9.75 5.671875 -9.75 C 5.609375 -9.75 5.550781 -9.734375 5.5 -9.703125 C 5.332031 -9.617188 4.988281 -9.3125 4.46875 -8.78125 C 4.019531 -8.320312 3.597656 -7.742188 3.203125 -7.046875 C 2.816406 -6.347656 2.53125 -5.691406 2.34375 -5.078125 C 2.164062 -4.492188 2.132812 -4.066406 2.25 -3.796875 C 2.382812 -3.546875 2.457031 -3.125 2.46875 -2.53125 C 2.519531 -2.070312 2.585938 -1.738281 2.671875 -1.53125 C 2.753906 -1.34375 2.878906 -1.21875 3.046875 -1.15625 C 3.234375 -1.070312 3.535156 -1.03125 3.953125 -1.03125 C 4.148438 -1.03125 4.316406 -1.035156 4.453125 -1.046875 C 4.585938 -1.046875 4.710938 -1.0625 4.828125 -1.09375 C 4.941406 -1.132812 5.050781 -1.175781 5.15625 -1.21875 C 5.269531 -1.289062 5.382812 -1.367188 5.5 -1.453125 C 5.613281 -1.535156 5.753906 -1.644531 5.921875 -1.78125 C 6.554688 -2.28125 6.914062 -2.675781 7 -2.96875 C 7.101562 -3.289062 7.300781 -3.625 7.59375 -3.96875 C 7.863281 -4.257812 8.039062 -4.6875 8.125 -5.25 Z M 8.125 -5.25 "/></g></g></g><g fill="#a48f7a" fill-opacity="1"><g transform="translate(142.134733, 262.602345)"><g><path d="M 16.46875 -4.453125 C 15.875 -4.546875 15.367188 -4.6875 14.953125 -4.875 C 14.785156 -4.9375 14.4375 -5.175781 13.90625 -5.59375 C 13.382812 -6.007812 13.015625 -6.238281 12.796875 -6.28125 C 12.535156 -6.289062 12.289062 -6.242188 12.0625 -6.140625 C 11.832031 -6.046875 11.632812 -5.910156 11.46875 -5.734375 C 11.300781 -5.554688 11.128906 -5.34375 10.953125 -5.09375 C 10.785156 -4.84375 10.640625 -4.601562 10.515625 -4.375 C 10.398438 -4.144531 10.269531 -3.894531 10.125 -3.625 C 9.988281 -3.351562 9.863281 -3.132812 9.75 -2.96875 C 9.582031 -2.738281 9.210938 -2.421875 8.640625 -2.015625 C 8.066406 -1.617188 7.503906 -1.25 6.953125 -0.90625 C 6.398438 -0.570312 6.109375 -0.382812 6.078125 -0.34375 C 5.859375 -0.175781 5.425781 -0.0625 4.78125 0 C 4.144531 0.0507812 3.5 0.0078125 2.84375 -0.125 C 2.195312 -0.269531 1.78125 -0.503906 1.59375 -0.828125 C 1.507812 -0.960938 1.4375 -1.191406 1.375 -1.515625 C 1.320312 -1.835938 1.28125 -2.144531 1.25 -2.4375 C 1.226562 -2.726562 1.203125 -3.070312 1.171875 -3.46875 C 1.140625 -3.875 1.125 -4.144531 1.125 -4.28125 C 1.019531 -5.09375 1.09375 -5.738281 1.34375 -6.21875 C 1.425781 -6.351562 1.53125 -6.851562 1.65625 -7.71875 C 1.78125 -8.59375 1.953125 -9.550781 2.171875 -10.59375 C 2.390625 -11.632812 2.648438 -12.421875 2.953125 -12.953125 C 3.628906 -14.097656 4.519531 -14.046875 5.625 -12.796875 C 5.894531 -12.492188 5.992188 -11.953125 5.921875 -11.171875 C 5.867188 -10.390625 5.671875 -9.613281 5.328125 -8.84375 C 5.128906 -8.382812 4.878906 -7.6875 4.578125 -6.75 C 4.253906 -5.832031 4.046875 -5.25 3.953125 -5 C 3.597656 -4.082031 3.613281 -3.375 4 -2.875 C 4.082031 -2.757812 4.238281 -2.722656 4.46875 -2.765625 C 4.707031 -2.816406 4.960938 -2.914062 5.234375 -3.0625 C 5.515625 -3.207031 5.765625 -3.359375 5.984375 -3.515625 C 6.210938 -3.671875 6.375 -3.804688 6.46875 -3.921875 C 6.820312 -4.304688 7.3125 -5.109375 7.9375 -6.328125 C 8.5625 -7.554688 8.925781 -8.429688 9.03125 -8.953125 C 9.15625 -9.503906 9.421875 -10.03125 9.828125 -10.53125 C 10.242188 -11.039062 10.703125 -11.445312 11.203125 -11.75 C 11.703125 -12.050781 12.21875 -12.148438 12.75 -12.046875 C 13.28125 -11.953125 13.710938 -11.601562 14.046875 -11 C 14.203125 -10.71875 14.34375 -10.191406 14.46875 -9.421875 C 14.59375 -8.660156 14.820312 -8.085938 15.15625 -7.703125 C 15.46875 -7.335938 15.800781 -7.078125 16.15625 -6.921875 C 16.519531 -6.773438 16.960938 -6.660156 17.484375 -6.578125 C 18.015625 -6.503906 18.425781 -6.421875 18.71875 -6.328125 C 19.070312 -6.191406 19.351562 -5.957031 19.5625 -5.625 C 19.769531 -5.289062 19.78125 -4.984375 19.59375 -4.703125 C 19.363281 -4.316406 18.832031 -4.164062 18 -4.25 C 17.332031 -4.3125 16.820312 -4.378906 16.46875 -4.453125 Z M 16.46875 -4.453125 "/></g></g></g><g fill="#a48f7a" fill-opacity="1"><g transform="translate(159.769436, 262.602345)"><g><path d="M 11.75 -2.796875 C 12.113281 -3.097656 12.429688 -3.21875 12.703125 -3.15625 C 12.984375 -3.101562 13.125 -2.84375 13.125 -2.375 C 13.144531 -2.226562 13.113281 -2.078125 13.03125 -1.921875 C 12.957031 -1.773438 12.878906 -1.644531 12.796875 -1.53125 C 12.710938 -1.425781 12.59375 -1.304688 12.4375 -1.171875 C 12.28125 -1.035156 12.148438 -0.9375 12.046875 -0.875 C 11.953125 -0.8125 11.804688 -0.71875 11.609375 -0.59375 C 11.421875 -0.46875 11.3125 -0.382812 11.28125 -0.34375 C 10.875 -0.0820312 10.460938 0.140625 10.046875 0.328125 C 10.015625 0.335938 9.96875 0.351562 9.90625 0.375 C 9.851562 0.40625 9.789062 0.429688 9.71875 0.453125 C 9.65625 0.484375 9.585938 0.507812 9.515625 0.53125 C 9.453125 0.5625 9.398438 0.582031 9.359375 0.59375 L 9.296875 0.625 C 8.285156 1.039062 7.195312 1.28125 6.03125 1.34375 C 4.820312 1.414062 3.945312 1.3125 3.40625 1.03125 C 3.332031 0.988281 3.0625 0.867188 2.59375 0.671875 C 2.132812 0.472656 1.800781 0.300781 1.59375 0.15625 C 1.21875 -0.09375 0.851562 -0.632812 0.5 -1.46875 C -0.144531 -2.96875 -0.46875 -4.296875 -0.46875 -5.453125 C -0.46875 -6.148438 -0.34375 -7.066406 -0.09375 -8.203125 C -0.0820312 -8.265625 -0.0546875 -8.40625 -0.015625 -8.625 C 0.0234375 -8.84375 0.0625 -9.003906 0.09375 -9.109375 C 0.132812 -9.222656 0.175781 -9.375 0.21875 -9.5625 C 0.269531 -9.75 0.320312 -9.910156 0.375 -10.046875 C 0.425781 -10.179688 0.484375 -10.316406 0.546875 -10.453125 C 0.617188 -10.597656 0.6875 -10.726562 0.75 -10.84375 C 1.101562 -11.332031 1.382812 -11.6875 1.59375 -11.90625 C 2.5 -12.832031 3.644531 -13.25 5.03125 -13.15625 C 6.457031 -13.03125 7.226562 -12.550781 7.34375 -11.71875 C 7.445312 -11.070312 7.410156 -10.398438 7.234375 -9.703125 C 7.054688 -9.015625 6.835938 -8.445312 6.578125 -8 C 6.328125 -7.550781 5.972656 -6.96875 5.515625 -6.25 C 5.054688 -5.53125 4.726562 -4.976562 4.53125 -4.59375 C 3.789062 -3.21875 3.421875 -2.394531 3.421875 -2.125 C 3.421875 -1.90625 3.628906 -1.597656 4.046875 -1.203125 C 4.316406 -0.953125 4.554688 -0.800781 4.765625 -0.75 C 4.972656 -0.695312 5.351562 -0.722656 5.90625 -0.828125 C 6.769531 -0.941406 7.707031 -1.148438 8.71875 -1.453125 C 9.101562 -1.585938 9.660156 -1.8125 10.390625 -2.125 C 11.128906 -2.4375 11.582031 -2.660156 11.75 -2.796875 Z M 2.046875 -4.578125 C 2.203125 -4.578125 2.617188 -5.226562 3.296875 -6.53125 C 3.960938 -7.820312 4.296875 -8.601562 4.296875 -8.875 C 4.296875 -9.1875 4.125 -9.390625 3.78125 -9.484375 C 3.445312 -9.578125 3.175781 -9.5 2.96875 -9.25 C 2.800781 -9.050781 2.632812 -8.75 2.46875 -8.34375 C 2.300781 -7.945312 2.171875 -7.539062 2.078125 -7.125 C 1.992188 -6.707031 1.914062 -6.304688 1.84375 -5.921875 C 1.78125 -5.535156 1.765625 -5.210938 1.796875 -4.953125 C 1.828125 -4.703125 1.910156 -4.578125 2.046875 -4.578125 Z M 2.046875 -4.578125 "/></g></g></g><g fill="#a48f7a" fill-opacity="1"><g transform="translate(171.030147, 262.602345)"><g/></g></g><g fill="#a48f7a" fill-opacity="1"><g transform="translate(182.440844, 262.602345)"><g><path d="M 8.625 -14.328125 C 9.644531 -16.492188 10.15625 -17.75 10.15625 -18.09375 C 10.15625 -18.28125 10.210938 -18.441406 10.328125 -18.578125 C 10.441406 -18.710938 10.550781 -18.84375 10.65625 -18.96875 C 10.769531 -19.101562 10.828125 -19.269531 10.828125 -19.46875 C 10.691406 -19.851562 10.257812 -19.929688 9.53125 -19.703125 C 8.8125 -19.484375 8.351562 -19.28125 8.15625 -19.09375 C 7.488281 -18.550781 6.757812 -18.382812 5.96875 -18.59375 C 5.175781 -18.800781 4.78125 -19.269531 4.78125 -20 C 4.78125 -20.28125 5.128906 -20.675781 5.828125 -21.1875 C 6.523438 -21.695312 7.082031 -21.953125 7.5 -21.953125 C 7.75 -21.953125 8.316406 -22.140625 9.203125 -22.515625 C 10.085938 -22.890625 10.5625 -23.078125 10.625 -23.078125 C 11.007812 -23.171875 12.304688 -23.179688 14.515625 -23.109375 C 16.734375 -23.035156 18.40625 -22.914062 19.53125 -22.75 C 20.539062 -22.613281 21.644531 -22.070312 22.84375 -21.125 C 24.382812 -20.019531 25.132812 -18.875 25.09375 -17.6875 C 25.0625 -16.5 24.269531 -14.78125 22.71875 -12.53125 C 21.957031 -11.445312 21.351562 -10.628906 20.90625 -10.078125 C 20.46875 -9.523438 20.101562 -9.132812 19.8125 -8.90625 C 19.519531 -8.6875 19.25 -8.578125 19 -8.578125 C 18.5625 -8.578125 18.15625 -8.382812 17.78125 -8 C 17.113281 -7.25 15.875 -6.546875 14.0625 -5.890625 C 12.25 -5.242188 10.820312 -4.976562 9.78125 -5.09375 C 9.457031 -5.09375 9.179688 -5.109375 8.953125 -5.140625 C 8.734375 -5.179688 8.523438 -5.132812 8.328125 -5 C 8.109375 -4.882812 7.925781 -4.757812 7.78125 -4.625 C 7.625 -4.507812 7.457031 -4.285156 7.28125 -3.953125 C 7.113281 -3.597656 6.945312 -3.238281 6.78125 -2.875 C 6.625 -2.488281 6.429688 -1.976562 6.203125 -1.34375 C 5.921875 -0.507812 5.695312 0.0703125 5.53125 0.40625 C 5.375 0.75 5.21875 0.988281 5.0625 1.125 C 4.90625 1.257812 4.703125 1.328125 4.453125 1.328125 C 3.921875 1.328125 3.492188 1.035156 3.171875 0.453125 C 2.941406 0.046875 2.867188 -0.328125 2.953125 -0.671875 C 3.035156 -1.023438 3.359375 -1.800781 3.921875 -3 C 4.722656 -4.71875 5.070312 -5.675781 4.96875 -5.875 C 4.84375 -6.019531 4.195312 -6.046875 3.03125 -5.953125 C 2.195312 -5.898438 1.65625 -5.910156 1.40625 -5.984375 C 1.15625 -6.054688 0.90625 -6.300781 0.65625 -6.71875 C 0.363281 -7.15625 0.21875 -7.453125 0.21875 -7.609375 C 0.21875 -7.765625 0.378906 -8.050781 0.703125 -8.46875 C 1.085938 -9.019531 1.925781 -9.507812 3.21875 -9.9375 C 4.507812 -10.363281 5.328125 -10.4375 5.671875 -10.15625 C 5.910156 -9.988281 6.21875 -10 6.59375 -10.1875 C 6.96875 -10.375 7.15625 -10.613281 7.15625 -10.90625 C 7.15625 -11.132812 7.644531 -12.273438 8.625 -14.328125 Z M 22 -18.09375 C 21.863281 -18.757812 21.722656 -19.1875 21.578125 -19.375 C 21.441406 -19.5625 21.125 -19.800781 20.625 -20.09375 C 20.0625 -20.382812 19.144531 -20.585938 17.875 -20.703125 C 16.09375 -20.867188 14.859375 -20.785156 14.171875 -20.453125 C 13.492188 -20.117188 13.15625 -19.441406 13.15625 -18.421875 C 13.15625 -17.660156 13.046875 -17.21875 12.828125 -17.09375 C 12.609375 -16.96875 12.5 -16.710938 12.5 -16.328125 C 12.5 -15.859375 11.429688 -13.46875 9.296875 -9.15625 C 8.828125 -8.164062 9.078125 -7.671875 10.046875 -7.671875 C 10.703125 -7.671875 11.519531 -7.878906 12.5 -8.296875 C 16.132812 -9.785156 18.914062 -12.035156 20.84375 -15.046875 C 21.425781 -15.867188 21.789062 -16.476562 21.9375 -16.875 C 22.082031 -17.269531 22.101562 -17.675781 22 -18.09375 Z M 22 -18.09375 "/></g></g></g><g fill="#a48f7a" fill-opacity="1"><g transform="translate(204.924786, 262.602345)"><g><path d="M 14.625 -4.796875 C 14.875 -4.660156 15 -4.367188 15 -3.921875 C 15.019531 -3.410156 14.726562 -2.925781 14.125 -2.46875 C 13.90625 -2.320312 13.65625 -2.175781 13.375 -2.03125 C 13.320312 -2.007812 13.265625 -1.972656 13.203125 -1.921875 C 12.960938 -1.785156 12.757812 -1.710938 12.59375 -1.703125 C 12.09375 -1.671875 11.613281 -1.867188 11.15625 -2.296875 C 11.03125 -2.398438 10.90625 -2.578125 10.78125 -2.828125 L 10.703125 -2.953125 C 10.546875 -3.203125 10.398438 -3.359375 10.265625 -3.421875 C 10.140625 -3.492188 9.976562 -3.476562 9.78125 -3.375 C 9.53125 -3.238281 9.242188 -2.832031 8.921875 -2.15625 C 8.773438 -1.800781 8.648438 -1.554688 8.546875 -1.421875 C 8.234375 -0.953125 7.957031 -0.6875 7.71875 -0.625 C 7.425781 -0.476562 7.019531 -0.242188 6.5 0.078125 C 5.863281 0.460938 5.265625 0.671875 4.703125 0.703125 C 4.046875 0.753906 3.5625 0.820312 3.25 0.90625 C 3.164062 0.914062 3.082031 0.921875 3 0.921875 C 2.8125 0.921875 2.65625 0.890625 2.53125 0.828125 C 2.320312 0.742188 2.03125 0.519531 1.65625 0.15625 C 1.238281 -0.226562 0.953125 -0.566406 0.796875 -0.859375 C 0.648438 -1.148438 0.5 -1.664062 0.34375 -2.40625 C 0.09375 -3.601562 0.0351562 -4.5625 0.171875 -5.28125 C 0.304688 -6.007812 0.675781 -6.859375 1.28125 -7.828125 C 2.039062 -9.054688 2.765625 -9.945312 3.453125 -10.5 C 4.128906 -11.050781 4.96875 -11.441406 5.96875 -11.671875 C 6.457031 -11.773438 6.882812 -11.953125 7.25 -12.203125 C 7.832031 -12.585938 8.347656 -12.726562 8.796875 -12.625 C 9.234375 -12.539062 9.734375 -12.195312 10.296875 -11.59375 C 10.597656 -11.257812 10.816406 -10.992188 10.953125 -10.796875 C 11.085938 -10.597656 11.175781 -10.40625 11.21875 -10.21875 C 11.269531 -10.039062 11.296875 -9.773438 11.296875 -9.421875 C 11.296875 -7.941406 11.347656 -6.789062 11.453125 -5.96875 C 11.503906 -5.488281 11.613281 -5.117188 11.78125 -4.859375 C 11.957031 -4.597656 12.265625 -4.285156 12.703125 -3.921875 L 12.78125 -3.96875 C 13.070312 -4.175781 13.285156 -4.335938 13.421875 -4.453125 C 13.921875 -4.835938 14.320312 -4.953125 14.625 -4.796875 Z M 8.84375 -9.09375 C 8.84375 -9.75 8.78125 -10.109375 8.65625 -10.171875 C 8.613281 -10.140625 8.578125 -10.097656 8.546875 -10.046875 C 8.460938 -9.898438 8.472656 -9.5625 8.578125 -9.03125 C 8.640625 -8.644531 8.707031 -8.398438 8.78125 -8.296875 C 8.820312 -8.429688 8.84375 -8.695312 8.84375 -9.09375 Z M 8.125 -5.25 C 8.1875 -5.632812 8.175781 -5.910156 8.09375 -6.078125 C 8.03125 -6.242188 7.820312 -6.5 7.46875 -6.84375 C 6.925781 -7.382812 6.65625 -7.828125 6.65625 -8.171875 C 6.65625 -8.410156 6.578125 -8.6875 6.421875 -9 C 6.273438 -9.3125 6.125 -9.519531 5.96875 -9.625 C 5.851562 -9.707031 5.753906 -9.75 5.671875 -9.75 C 5.609375 -9.75 5.550781 -9.734375 5.5 -9.703125 C 5.332031 -9.617188 4.988281 -9.3125 4.46875 -8.78125 C 4.019531 -8.320312 3.597656 -7.742188 3.203125 -7.046875 C 2.816406 -6.347656 2.53125 -5.691406 2.34375 -5.078125 C 2.164062 -4.492188 2.132812 -4.066406 2.25 -3.796875 C 2.382812 -3.546875 2.457031 -3.125 2.46875 -2.53125 C 2.519531 -2.070312 2.585938 -1.738281 2.671875 -1.53125 C 2.753906 -1.34375 2.878906 -1.21875 3.046875 -1.15625 C 3.234375 -1.070312 3.535156 -1.03125 3.953125 -1.03125 C 4.148438 -1.03125 4.316406 -1.035156 4.453125 -1.046875 C 4.585938 -1.046875 4.710938 -1.0625 4.828125 -1.09375 C 4.941406 -1.132812 5.050781 -1.175781 5.15625 -1.21875 C 5.269531 -1.289062 5.382812 -1.367188 5.5 -1.453125 C 5.613281 -1.535156 5.753906 -1.644531 5.921875 -1.78125 C 6.554688 -2.28125 6.914062 -2.675781 7 -2.96875 C 7.101562 -3.289062 7.300781 -3.625 7.59375 -3.96875 C 7.863281 -4.257812 8.039062 -4.6875 8.125 -5.25 Z M 8.125 -5.25 "/></g></g></g><g fill="#a48f7a" fill-opacity="1"><g transform="translate(218.510136, 262.602345)"><g><path d="M 12.671875 -3.03125 C 13.054688 -3.289062 13.378906 -3.375 13.640625 -3.28125 C 13.910156 -3.195312 14.03125 -2.921875 14 -2.453125 C 13.976562 -2.335938 13.9375 -2.21875 13.875 -2.09375 C 13.820312 -1.96875 13.742188 -1.851562 13.640625 -1.75 C 13.546875 -1.644531 13.453125 -1.550781 13.359375 -1.46875 C 13.265625 -1.382812 13.144531 -1.296875 13 -1.203125 C 12.851562 -1.117188 12.726562 -1.050781 12.625 -1 C 12.519531 -0.945312 12.390625 -0.878906 12.234375 -0.796875 C 12.078125 -0.710938 11.972656 -0.65625 11.921875 -0.625 C 11.503906 -0.40625 11.070312 -0.226562 10.625 -0.09375 C 10.601562 -0.0820312 10.394531 0.0390625 10 0.28125 C 9.613281 0.53125 9.171875 0.800781 8.671875 1.09375 C 8.171875 1.382812 7.765625 1.578125 7.453125 1.671875 C 7.015625 1.828125 6.5625 1.945312 6.09375 2.03125 C 5.632812 2.113281 5.144531 2.164062 4.625 2.1875 C 4.101562 2.207031 3.601562 2.148438 3.125 2.015625 C 2.65625 1.890625 2.265625 1.691406 1.953125 1.421875 C 1.566406 1.078125 1.253906 0.601562 1.015625 0 C 0.773438 -0.613281 0.613281 -1.273438 0.53125 -1.984375 C 0.457031 -2.691406 0.421875 -3.351562 0.421875 -3.96875 C 0.421875 -4.59375 0.445312 -5.1875 0.5 -5.75 C 0.519531 -5.832031 0.613281 -6.546875 0.78125 -7.890625 C 0.957031 -9.234375 1.125 -10.550781 1.28125 -11.84375 L 1.53125 -13.78125 C 1.320312 -13.894531 0.945312 -13.976562 0.40625 -14.03125 C 0.0703125 -14.039062 -0.269531 -14.039062 -0.625 -14.03125 C -1.4375 -14.03125 -2.007812 -14.050781 -2.34375 -14.09375 C -2.414062 -14.113281 -2.515625 -14.125 -2.640625 -14.125 C -2.765625 -14.125 -2.890625 -14.125 -3.015625 -14.125 C -3.140625 -14.125 -3.265625 -14.125 -3.390625 -14.125 C -3.515625 -14.125 -3.613281 -14.132812 -3.6875 -14.15625 C -3.757812 -14.1875 -3.804688 -14.226562 -3.828125 -14.28125 C -3.859375 -14.539062 -3.75 -14.726562 -3.5 -14.84375 C -3.476562 -14.863281 -3.363281 -14.9375 -3.15625 -15.0625 C -2.945312 -15.1875 -2.726562 -15.304688 -2.5 -15.421875 C -2.28125 -15.535156 -1.976562 -15.640625 -1.59375 -15.734375 C -1.21875 -15.828125 -0.828125 -15.863281 -0.421875 -15.84375 C 0.828125 -15.726562 1.601562 -15.691406 1.90625 -15.734375 C 2.21875 -15.773438 2.523438 -15.957031 2.828125 -16.28125 C 3.273438 -16.695312 3.875 -17.785156 4.625 -19.546875 C 4.65625 -19.617188 4.707031 -19.71875 4.78125 -19.84375 C 5.0625 -20.507812 5.289062 -21.035156 5.46875 -21.421875 C 5.65625 -21.804688 5.914062 -22.296875 6.25 -22.890625 C 6.582031 -23.484375 6.945312 -23.976562 7.34375 -24.375 C 7.75 -24.769531 8.164062 -25.078125 8.59375 -25.296875 C 10 -25.960938 10.703125 -25.921875 10.703125 -25.171875 C 10.703125 -24.742188 10.375 -23.769531 9.71875 -22.25 C 9.539062 -21.832031 9.410156 -21.507812 9.328125 -21.28125 C 9.222656 -20.976562 9.132812 -20.617188 9.0625 -20.203125 C 9 -19.785156 8.84375 -19.367188 8.59375 -18.953125 C 8.195312 -18.253906 7.863281 -17.660156 7.59375 -17.171875 C 7.28125 -16.609375 7.164062 -16.273438 7.25 -16.171875 C 7.332031 -16.035156 8.175781 -15.882812 9.78125 -15.71875 C 10.894531 -15.601562 11.570312 -15.503906 11.8125 -15.421875 C 12.050781 -15.335938 12.15625 -15.179688 12.125 -14.953125 C 12.09375 -14.628906 11.910156 -14.492188 11.578125 -14.546875 C 11.441406 -14.566406 11.175781 -14.578125 10.78125 -14.578125 C 10.375 -14.554688 9.921875 -14.53125 9.421875 -14.5 C 8.921875 -14.46875 8.40625 -14.414062 7.875 -14.34375 C 7.351562 -14.28125 6.921875 -14.234375 6.578125 -14.203125 C 6.390625 -14.171875 6.144531 -13.632812 5.84375 -12.59375 C 5.550781 -11.5625 5.222656 -10.304688 4.859375 -8.828125 C 4.503906 -7.359375 4.242188 -6.375 4.078125 -5.875 C 3.222656 -3.320312 3.332031 -1.570312 4.40625 -0.625 C 4.882812 -0.1875 5.332031 0.0195312 5.75 0 C 6 0 6.273438 -0.09375 6.578125 -0.28125 C 6.628906 -0.34375 6.800781 -0.441406 7.09375 -0.578125 C 7.382812 -0.710938 7.679688 -0.832031 7.984375 -0.9375 C 8.296875 -1.039062 8.613281 -1.148438 8.9375 -1.265625 C 9.257812 -1.390625 9.429688 -1.453125 9.453125 -1.453125 C 10.785156 -1.984375 11.859375 -2.507812 12.671875 -3.03125 Z M 12.671875 -3.03125 "/></g></g></g><g fill="#a48f7a" fill-opacity="1"><g transform="translate(230.845687, 262.602345)"><g><path d="M 5.96875 -15.171875 C 5.507812 -15.054688 5.050781 -15.222656 4.59375 -15.671875 C 4.28125 -15.992188 4.113281 -16.203125 4.09375 -16.296875 C 4.082031 -16.398438 4.203125 -16.550781 4.453125 -16.75 C 4.796875 -17 5.238281 -17.125 5.78125 -17.125 C 6.320312 -17.125 6.695312 -17 6.90625 -16.75 C 7.113281 -16.46875 7.125 -16.160156 6.9375 -15.828125 C 6.75 -15.492188 6.425781 -15.273438 5.96875 -15.171875 Z M 10.421875 -3.203125 C 10.535156 -3.003906 10.539062 -2.8125 10.4375 -2.625 C 10.332031 -2.4375 10.03125 -2.132812 9.53125 -1.71875 C 8.738281 -1.050781 7.8125 -0.445312 6.75 0.09375 C 5.945312 0.5 5.113281 0.660156 4.25 0.578125 C 3.394531 0.503906 2.585938 0.257812 1.828125 -0.15625 C 1.078125 -0.570312 0.425781 -1.113281 -0.125 -1.78125 C -0.90625 -2.707031 -1.140625 -3.945312 -0.828125 -5.5 C -0.796875 -5.613281 -0.726562 -6.007812 -0.625 -6.6875 C -0.519531 -7.375 -0.414062 -7.976562 -0.3125 -8.5 C -0.207031 -9.03125 -0.0859375 -9.378906 0.046875 -9.546875 C 0.203125 -9.734375 0.445312 -9.859375 0.78125 -9.921875 C 1.125 -9.992188 1.476562 -10 1.84375 -9.9375 C 2.21875 -9.875 2.570312 -9.765625 2.90625 -9.609375 C 3.238281 -9.453125 3.46875 -9.238281 3.59375 -8.96875 C 3.71875 -8.707031 3.710938 -8.410156 3.578125 -8.078125 C 3.191406 -7.273438 3 -6.71875 3 -6.40625 C 3 -6.101562 2.832031 -5.726562 2.5 -5.28125 C 2.21875 -4.945312 2.046875 -4.539062 1.984375 -4.0625 C 1.929688 -3.582031 2.007812 -3.269531 2.21875 -3.125 C 2.40625 -3.0625 2.5 -2.851562 2.5 -2.5 C 2.5 -2.195312 2.71875 -1.851562 3.15625 -1.46875 C 3.445312 -1.1875 3.679688 -1.03125 3.859375 -1 C 4.035156 -0.96875 4.359375 -1.007812 4.828125 -1.125 C 5.503906 -1.375 6.378906 -1.882812 7.453125 -2.65625 C 8.296875 -3.269531 8.9375 -3.617188 9.375 -3.703125 C 9.820312 -3.785156 10.171875 -3.617188 10.421875 -3.203125 Z M 10.421875 -3.203125 "/></g></g></g><g fill="#a48f7a" fill-opacity="1"><g transform="translate(239.181872, 262.602345)"><g><path d="M 14.625 -4.796875 C 14.875 -4.660156 15 -4.367188 15 -3.921875 C 15.019531 -3.410156 14.726562 -2.925781 14.125 -2.46875 C 13.90625 -2.320312 13.65625 -2.175781 13.375 -2.03125 C 13.320312 -2.007812 13.265625 -1.972656 13.203125 -1.921875 C 12.960938 -1.785156 12.757812 -1.710938 12.59375 -1.703125 C 12.09375 -1.671875 11.613281 -1.867188 11.15625 -2.296875 C 11.03125 -2.398438 10.90625 -2.578125 10.78125 -2.828125 L 10.703125 -2.953125 C 10.546875 -3.203125 10.398438 -3.359375 10.265625 -3.421875 C 10.140625 -3.492188 9.976562 -3.476562 9.78125 -3.375 C 9.53125 -3.238281 9.242188 -2.832031 8.921875 -2.15625 C 8.773438 -1.800781 8.648438 -1.554688 8.546875 -1.421875 C 8.234375 -0.953125 7.957031 -0.6875 7.71875 -0.625 C 7.425781 -0.476562 7.019531 -0.242188 6.5 0.078125 C 5.863281 0.460938 5.265625 0.671875 4.703125 0.703125 C 4.046875 0.753906 3.5625 0.820312 3.25 0.90625 C 3.164062 0.914062 3.082031 0.921875 3 0.921875 C 2.8125 0.921875 2.65625 0.890625 2.53125 0.828125 C 2.320312 0.742188 2.03125 0.519531 1.65625 0.15625 C 1.238281 -0.226562 0.953125 -0.566406 0.796875 -0.859375 C 0.648438 -1.148438 0.5 -1.664062 0.34375 -2.40625 C 0.09375 -3.601562 0.0351562 -4.5625 0.171875 -5.28125 C 0.304688 -6.007812 0.675781 -6.859375 1.28125 -7.828125 C 2.039062 -9.054688 2.765625 -9.945312 3.453125 -10.5 C 4.128906 -11.050781 4.96875 -11.441406 5.96875 -11.671875 C 6.457031 -11.773438 6.882812 -11.953125 7.25 -12.203125 C 7.832031 -12.585938 8.347656 -12.726562 8.796875 -12.625 C 9.234375 -12.539062 9.734375 -12.195312 10.296875 -11.59375 C 10.597656 -11.257812 10.816406 -10.992188 10.953125 -10.796875 C 11.085938 -10.597656 11.175781 -10.40625 11.21875 -10.21875 C 11.269531 -10.039062 11.296875 -9.773438 11.296875 -9.421875 C 11.296875 -7.941406 11.347656 -6.789062 11.453125 -5.96875 C 11.503906 -5.488281 11.613281 -5.117188 11.78125 -4.859375 C 11.957031 -4.597656 12.265625 -4.285156 12.703125 -3.921875 L 12.78125 -3.96875 C 13.070312 -4.175781 13.285156 -4.335938 13.421875 -4.453125 C 13.921875 -4.835938 14.320312 -4.953125 14.625 -4.796875 Z M 8.84375 -9.09375 C 8.84375 -9.75 8.78125 -10.109375 8.65625 -10.171875 C 8.613281 -10.140625 8.578125 -10.097656 8.546875 -10.046875 C 8.460938 -9.898438 8.472656 -9.5625 8.578125 -9.03125 C 8.640625 -8.644531 8.707031 -8.398438 8.78125 -8.296875 C 8.820312 -8.429688 8.84375 -8.695312 8.84375 -9.09375 Z M 8.125 -5.25 C 8.1875 -5.632812 8.175781 -5.910156 8.09375 -6.078125 C 8.03125 -6.242188 7.820312 -6.5 7.46875 -6.84375 C 6.925781 -7.382812 6.65625 -7.828125 6.65625 -8.171875 C 6.65625 -8.410156 6.578125 -8.6875 6.421875 -9 C 6.273438 -9.3125 6.125 -9.519531 5.96875 -9.625 C 5.851562 -9.707031 5.753906 -9.75 5.671875 -9.75 C 5.609375 -9.75 5.550781 -9.734375 5.5 -9.703125 C 5.332031 -9.617188 4.988281 -9.3125 4.46875 -8.78125 C 4.019531 -8.320312 3.597656 -7.742188 3.203125 -7.046875 C 2.816406 -6.347656 2.53125 -5.691406 2.34375 -5.078125 C 2.164062 -4.492188 2.132812 -4.066406 2.25 -3.796875 C 2.382812 -3.546875 2.457031 -3.125 2.46875 -2.53125 C 2.519531 -2.070312 2.585938 -1.738281 2.671875 -1.53125 C 2.753906 -1.34375 2.878906 -1.21875 3.046875 -1.15625 C 3.234375 -1.070312 3.535156 -1.03125 3.953125 -1.03125 C 4.148438 -1.03125 4.316406 -1.035156 4.453125 -1.046875 C 4.585938 -1.046875 4.710938 -1.0625 4.828125 -1.09375 C 4.941406 -1.132812 5.050781 -1.175781 5.15625 -1.21875 C 5.269531 -1.289062 5.382812 -1.367188 5.5 -1.453125 C 5.613281 -1.535156 5.753906 -1.644531 5.921875 -1.78125 C 6.554688 -2.28125 6.914062 -2.675781 7 -2.96875 C 7.101562 -3.289062 7.300781 -3.625 7.59375 -3.96875 C 7.863281 -4.257812 8.039062 -4.6875 8.125 -5.25 Z M 8.125 -5.25 "/></g></g></g><g fill="#a48f7a" fill-opacity="1"><g transform="translate(252.767221, 262.602345)"><g><path d="M -1.03125 -3.453125 C -0.757812 -3.898438 -0.242188 -4.925781 0.515625 -6.53125 C 1.285156 -8.144531 1.945312 -9.273438 2.5 -9.921875 C 2.582031 -10.035156 2.675781 -10.144531 2.78125 -10.25 C 2.976562 -10.46875 3.25 -10.628906 3.59375 -10.734375 C 3.945312 -10.847656 4.265625 -10.835938 4.546875 -10.703125 C 4.648438 -10.628906 4.722656 -10.453125 4.765625 -10.171875 C 4.804688 -9.890625 4.867188 -9.738281 4.953125 -9.71875 C 5.066406 -9.707031 5.347656 -9.859375 5.796875 -10.171875 C 6.566406 -10.703125 7.773438 -11.144531 9.421875 -11.5 C 10.085938 -11.664062 10.519531 -11.734375 10.71875 -11.703125 C 10.925781 -11.671875 11.175781 -11.519531 11.46875 -11.25 C 11.851562 -10.863281 12.050781 -10.394531 12.0625 -9.84375 C 12.082031 -9.300781 11.90625 -8.785156 11.53125 -8.296875 C 11.238281 -7.878906 10.867188 -7.050781 10.421875 -5.8125 C 9.972656 -4.582031 9.75 -3.738281 9.75 -3.28125 C 9.75 -2.945312 9.859375 -2.582031 10.078125 -2.1875 C 10.304688 -1.789062 10.582031 -1.460938 10.90625 -1.203125 C 11.238281 -0.953125 11.535156 -0.828125 11.796875 -0.828125 C 12.203125 -0.828125 13.046875 -1.160156 14.328125 -1.828125 C 15.609375 -2.492188 16.613281 -3.125 17.34375 -3.71875 C 17.894531 -4.132812 18.285156 -4.332031 18.515625 -4.3125 C 18.753906 -4.289062 18.875 -4.046875 18.875 -3.578125 C 18.875 -3.378906 18.785156 -3.148438 18.609375 -2.890625 C 18.429688 -2.628906 18.203125 -2.359375 17.921875 -2.078125 C 17.617188 -1.804688 17.269531 -1.53125 16.875 -1.25 C 16.476562 -0.976562 16.070312 -0.757812 15.65625 -0.59375 C 14.550781 -0.0820312 13.757812 0.289062 13.28125 0.53125 C 12.445312 0.90625 11.707031 1.007812 11.0625 0.84375 C 10.414062 0.675781 9.660156 0.160156 8.796875 -0.703125 C 8.097656 -1.398438 7.6875 -1.878906 7.5625 -2.140625 C 7.4375 -2.398438 7.375 -2.894531 7.375 -3.625 C 7.375 -4.6875 7.566406 -5.796875 7.953125 -6.953125 C 8.285156 -8.097656 8.414062 -8.722656 8.34375 -8.828125 C 8.25 -8.921875 7.578125 -8.378906 6.328125 -7.203125 C 5.078125 -6.035156 3.847656 -4.796875 2.640625 -3.484375 C 1.441406 -2.179688 0.84375 -1.425781 0.84375 -1.21875 C 0.84375 -1.050781 0.738281 -0.867188 0.53125 -0.671875 C 0.320312 -0.472656 0.0703125 -0.3125 -0.21875 -0.1875 C -0.519531 -0.0625 -0.789062 -0.0234375 -1.03125 -0.078125 C -1.40625 -0.128906 -1.671875 -0.425781 -1.828125 -0.96875 C -1.941406 -1.34375 -1.957031 -1.671875 -1.875 -1.953125 C -1.789062 -2.234375 -1.507812 -2.734375 -1.03125 -3.453125 Z M -1.03125 -3.453125 "/></g></g></g></svg>